<svg xmlns="http://www.w3.org/2000/svg" xmlns:xlink="http://www.w3.org/1999/xlink" width="26px" height="26px" viewBox="0 0 26 26" version="1.1">
    <!-- Generator: Sketch 53 (72520) - https://sketchapp.com -->
    <title>Telefuel Icon</title>
    <desc>Created with Sketch.</desc>
    <g id="Website" stroke="none" stroke-width="1" fill="none" fill-rule="evenodd">
        <g id="Telefuel-Home-Page" transform="translate(-579.000000, -353.000000)" fill="#FFFFFF" fill-rule="nonzero">
            <g id="Hero">
                <g id="Get-Started" transform="translate(558.000000, 336.000000)">
                    <g id="Telefuel-Icon" transform="translate(21.000000, 17.000000)">
                        <path d="M6.97448801,19.0269503 C6.07557188,18.1280341 5.3569184,17.0792986 4.84657374,16 C4.78687972,16.059694 4.69675439,16.119388 4.63706036,16.2095134 C2.29963871,18.546935 2.03044329,22.2328507 2,23.5200986 C2,23.789306 2.20951338,24 2.47990136,24 C3.76858753,23.9695687 7.45450323,23.7003613 9.79048662,21.3629396 C9.85018064,21.3032456 9.90987467,21.2435516 10,21.1534263 C8.92198981,20.6454488 7.87325432,19.9255967 6.9742483,19.0266806 L6.97448801,19.0269503 Z" id="Path"/>
                        <path d="M20.3626966,17.5717606 L20.1168522,16.9153004 C20.1991561,16.8329747 20.3081831,16.7506489 20.390487,16.6693906 C25.3982771,11.6602692 25.9720893,3.77721863 26,1.01249889 C26,0.437275147 25.5617465,0 24.9877702,0 C22.2235116,0.0277977366 14.3428299,0.601937596 9.33613432,5.61100433 C9.25383045,5.69333008 9.17152658,5.80238611 9.09028989,5.88471186 L8.43400423,5.63880207 C6.65537814,4.95453324 4.63102803,5.39289227 3.28939669,6.78815472 L0.141502158,10.0726451 C-0.104342276,10.3463526 -0.0231055815,10.7569139 0.33283307,10.8937676 L5.614258,12.9187654 C5.55974448,16.997555 9.00678202,20.4457224 13.0847612,20.3912546 L15.137022,25.6740836 C15.2738394,26.0023137 15.6842916,26.1124536 15.9579264,25.8654654 L19.2415438,22.7178289 C20.6097177,21.3770999 21.046904,19.3509525 20.362817,17.5718536 L20.3626966,17.5717606 Z M20.4132082,5.586041 C21.1955973,6.36860213 21.1955973,7.63172123 20.4132082,8.41307916 C19.6308192,9.19564028 18.3679779,9.19564028 17.5867918,8.41307916 C16.8044027,7.63051803 16.8044027,6.36739893 17.5867918,5.586041 C18.3680079,4.804653 19.6308493,4.804653 20.4132082,5.586041 Z M12.7260744,13.2745978 C11.7579752,12.3063464 11.7579752,10.6933109 12.7260744,9.72618857 C13.6941736,8.75793714 15.3069554,8.75793714 16.2739256,9.72618857 C17.2420248,10.69444 17.2420248,12.3074755 16.2739256,13.2745978 C15.3068748,14.2418007 13.7203544,14.2418007 12.7260744,13.2745978 Z" id="Shape"/>
                    </g>
                </g>
            </g>
        </g>
    </g>
</svg>